<svg width="407" height="75" viewBox="0 0 407 75" fill="none" xmlns="http://www.w3.org/2000/svg">
<path d="M393.24 52.8404C390.477 52.8404 387.948 52.4999 385.652 51.819C383.376 51.138 381.411 50.175 379.757 48.9299L382.734 42.3637C384.349 43.3949 386.08 44.212 387.928 44.8151C389.777 45.3988 391.528 45.6906 393.181 45.6906C394.699 45.6906 395.856 45.4863 396.654 45.0777C397.452 44.6497 397.85 44.0369 397.85 43.2392C397.85 42.5388 397.481 42.0233 396.742 41.6925C396.022 41.3618 394.601 41.0019 392.481 40.6128C388.473 39.9318 385.535 38.8132 383.668 37.2568C381.819 35.6809 380.895 33.5311 380.895 30.8074C380.895 28.8618 381.43 27.1595 382.5 25.7004C383.57 24.2412 385.049 23.1128 386.936 22.3152C388.843 21.498 391.031 21.0895 393.502 21.0895C395.915 21.0895 398.191 21.4105 400.331 22.0525C402.491 22.6945 404.339 23.5895 405.876 24.7373L402.987 31.3035C402.189 30.7003 401.265 30.1653 400.214 29.6984C399.183 29.2315 398.113 28.8716 397.004 28.6186C395.895 28.3657 394.815 28.2393 393.765 28.2393C392.461 28.2393 391.401 28.4435 390.584 28.8521C389.786 29.2412 389.387 29.786 389.387 30.4863C389.387 31.2062 389.738 31.7412 390.438 32.0914C391.138 32.4416 392.539 32.8404 394.64 33.2879C398.882 34.1439 401.887 35.3015 403.658 36.7606C405.428 38.2003 406.313 40.2237 406.313 42.8307C406.313 44.854 405.759 46.6147 404.65 48.1128C403.561 49.6108 402.033 50.7781 400.068 51.6147C398.123 52.4318 395.847 52.8404 393.24 52.8404Z" fill="#120D94"/>
<path d="M371.281 52.8987C367.974 52.8987 365.377 51.9746 363.49 50.1264C361.602 48.2587 360.659 45.4766 360.659 41.7801V13.7354H370.231V22.2568H377.205V29.8443H370.231V40.1167C370.231 41.712 370.581 42.8307 371.281 43.4727C371.982 44.1147 372.886 44.4357 373.995 44.4357C374.598 44.4357 375.192 44.3676 375.776 44.2314C376.379 44.0758 376.933 43.8521 377.439 43.5602L378.665 51.0602C377.75 51.5661 376.651 51.9941 375.367 52.3443C374.083 52.7139 372.721 52.8987 371.281 52.8987Z" fill="#120D94"/>
<path d="M337.527 52.0232V22.2568H347.099V25.7295C347.994 24.1926 349.18 23.0739 350.659 22.3735C352.137 21.6731 353.743 21.3229 355.474 21.3229C356.136 21.3229 356.729 21.3618 357.254 21.4397C357.779 21.5175 358.295 21.605 358.801 21.7023V31.8419C358.139 31.6084 356.301 31.1186 355.562 30.9824C354.822 30.8268 354.083 30.749 353.344 30.749C351.534 30.749 350.036 31.2743 348.85 32.3249C347.682 33.356 347.099 34.8735 347.099 36.8774V52.0232H337.527Z" fill="#120D94"/>
<path d="M315.897 52.8987C313.913 52.8987 312.133 52.5194 310.557 51.7606C308.981 50.9824 307.736 49.8832 306.821 48.4629C305.907 47.0233 305.45 45.3015 305.45 43.2976C305.45 41.5855 305.868 40.068 306.705 38.7451C307.561 37.4221 308.845 36.3326 310.557 35.4766C312.269 34.6206 314.419 34.0466 317.006 33.7548C319.613 33.4435 322.658 33.4435 326.14 33.7548L326.228 39.7081C324.38 39.3774 322.707 39.212 321.209 39.212C319.73 39.1925 318.465 39.319 317.415 39.5914C316.384 39.8443 315.586 40.2431 315.022 40.7879C314.458 41.3326 314.175 42.0038 314.175 42.8015C314.175 43.8326 314.565 44.6205 315.343 45.1653C316.14 45.71 317.201 45.9824 318.524 45.9824C319.672 45.9824 320.703 45.7781 321.617 45.3696C322.551 44.961 323.29 44.3676 323.835 43.5894C324.399 42.7918 324.681 41.819 324.681 40.6711V33.8715C324.681 32.8015 324.458 31.8579 324.01 31.0408C323.563 30.2237 322.853 29.5914 321.88 29.1439C320.926 28.677 319.652 28.4435 318.057 28.4435C316.52 28.4435 314.993 28.677 313.475 29.1439C311.958 29.5914 310.596 30.2723 309.39 31.1867L306.938 24.6206C308.864 23.4144 310.926 22.5292 313.125 21.965C315.323 21.3813 317.483 21.0895 319.603 21.0895C322.405 21.0895 324.866 21.5369 326.987 22.4319C329.127 23.3268 330.8 24.7081 332.006 26.5758C333.212 28.4435 333.816 30.8365 333.816 33.7548V52.0233H325.557V48.8715C324.603 50.1556 323.29 51.1478 321.617 51.8482C319.944 52.5485 318.037 52.8987 315.897 52.8987Z" fill="#120D94"/>
<path d="M271.668 52.0232V10H281.24V28.9105L279.256 26.5467C280.54 24.9708 282.067 23.7159 283.837 22.7821C285.608 21.8482 287.563 21.3813 289.703 21.3813C292.485 21.3813 294.8 21.9358 296.649 23.0447C298.516 24.1537 299.907 25.6031 300.822 27.393C301.736 29.1828 302.193 31.1089 302.193 33.1711V52.0232H292.621V35.856C292.621 34.1439 292.125 32.7529 291.133 31.6828C290.141 30.6128 288.75 30.068 286.96 30.0486C285.754 30.0291 284.723 30.2723 283.866 30.7782C283.03 31.2645 282.378 31.9747 281.911 32.9085C281.464 33.8229 281.24 34.9124 281.24 36.177V52.0232H271.668Z" fill="#120D94"/>
<path d="M256.835 52.8987C253.684 52.8987 250.863 52.2178 248.372 50.8559C245.902 49.4746 243.946 47.5972 242.507 45.2236C241.067 42.8306 240.347 40.1361 240.347 37.14C240.347 34.8832 240.765 32.8015 241.602 30.8949C242.458 28.9883 243.654 27.3249 245.191 25.9046C246.728 24.4649 248.518 23.356 250.561 22.5778C252.604 21.7801 254.822 21.3813 257.215 21.3813C259.472 21.3813 261.563 21.6926 263.489 22.3151C265.415 22.9182 267.147 23.8326 268.684 25.0583L264.481 32.1497C263.528 31.2743 262.477 30.6322 261.33 30.2237C260.201 29.8151 259.014 29.6108 257.769 29.6108C256.135 29.6108 254.725 29.9027 253.538 30.4863C252.351 31.07 251.437 31.926 250.795 33.0544C250.172 34.1828 249.861 35.5349 249.861 37.1108C249.861 39.4844 250.561 41.3423 251.962 42.6847C253.382 44.0077 255.328 44.6692 257.798 44.6692C259.199 44.6692 260.512 44.4162 261.738 43.9104C262.983 43.3851 264.121 42.6264 265.152 41.6342L269.034 48.8715C267.361 50.1166 265.444 51.0991 263.285 51.819C261.145 52.5388 258.995 52.8987 256.835 52.8987Z" fill="#120D94"/>
<path d="M231.987 52.8987C228.679 52.8987 226.082 51.9746 224.195 50.1264C222.308 48.2587 221.364 45.4766 221.364 41.7801V13.7354H230.936V22.2568H237.911V29.8443H230.936V40.1167C230.936 41.712 231.286 42.8307 231.987 43.4727C232.687 44.1147 233.592 44.4357 234.701 44.4357C235.304 44.4357 235.897 44.3676 236.481 44.2314C237.084 44.0758 237.638 43.8521 238.144 43.5602L239.37 51.0602C238.456 51.5661 237.356 51.9941 236.072 52.3443C234.788 52.7139 233.426 52.8987 231.987 52.8987Z" fill="#120D94"/>
<path d="M197.317 52.0232V22.2568H206.889V25.7295C207.784 24.1926 208.971 23.0739 210.45 22.3735C211.928 21.6731 213.533 21.3229 215.265 21.3229C215.926 21.3229 216.52 21.3618 217.045 21.4397C217.57 21.5175 218.086 21.605 218.592 21.7023V31.8419C217.93 31.6084 216.092 31.1186 215.352 30.9824C214.613 30.8268 213.874 30.749 213.134 30.749C211.325 30.749 209.827 31.2743 208.64 32.3249C207.473 33.356 206.889 34.8735 206.889 36.8774V52.0232H197.317Z" fill="#120D94"/>
<path d="M177.499 52.8987C174.25 52.8987 171.381 52.1886 168.89 50.7684C166.4 49.3287 164.445 47.4123 163.025 45.0194C161.624 42.6264 160.924 39.9999 160.924 37.14C160.924 35.0583 161.322 33.0739 162.12 31.1867C162.937 29.2801 164.085 27.5972 165.564 26.1381C167.042 24.6595 168.793 23.5019 170.816 22.6653C172.84 21.8093 175.067 21.3813 177.499 21.3813C180.748 21.3813 183.618 22.1011 186.108 23.5408C188.599 24.961 190.544 26.8677 191.945 29.2606C193.346 31.6536 194.046 34.2801 194.046 37.14C194.046 39.2217 193.647 41.2159 192.85 43.1225C192.052 45.0096 190.914 46.6828 189.435 48.1419C187.957 49.6011 186.206 50.7586 184.182 51.6147C182.159 52.4707 179.931 52.8987 177.499 52.8987ZM177.499 44.6692C178.861 44.6692 180.087 44.3676 181.176 43.7645C182.266 43.1419 183.122 42.2664 183.744 41.138C184.367 40.0096 184.678 38.677 184.678 37.14C184.678 35.5836 184.367 34.2509 183.744 33.142C183.141 32.0136 182.295 31.1478 181.206 30.5447C180.116 29.9221 178.881 29.6108 177.499 29.6108C176.118 29.6108 174.883 29.9221 173.793 30.5447C172.704 31.1478 171.848 32.0136 171.225 33.142C170.602 34.2509 170.291 35.5836 170.291 37.14C170.291 38.677 170.602 40.0096 171.225 41.138C171.867 42.2664 172.733 43.1419 173.822 43.7645C174.912 44.3676 176.137 44.6692 177.499 44.6692Z" fill="#120D94"/>
<path d="M126.465 64.28V22.2568H134.723V25.6712C135.832 24.3677 137.243 23.3268 138.955 22.5486C140.686 21.7704 142.69 21.3813 144.966 21.3813C147.807 21.3813 150.336 22.033 152.554 23.3365C154.791 24.64 156.552 26.4785 157.836 28.8521C159.12 31.2256 159.762 33.9883 159.762 37.14C159.762 39.3579 159.393 41.4299 158.653 43.3559C157.933 45.2625 156.902 46.9357 155.56 48.3754C154.217 49.7956 152.632 50.9046 150.803 51.7022C148.994 52.4999 146.99 52.8987 144.791 52.8987C143.04 52.8987 141.426 52.6166 139.947 52.0524C138.488 51.4882 137.175 50.6905 136.007 49.6594V64.28H126.465ZM143.186 44.6692C144.568 44.6692 145.803 44.3676 146.893 43.7645C147.982 43.1419 148.838 42.2664 149.461 41.138C150.083 40.0096 150.394 38.677 150.394 37.14C150.394 35.5836 150.073 34.2509 149.431 33.142C148.809 32.0136 147.953 31.1478 146.863 30.5447C145.793 29.9221 144.568 29.6108 143.186 29.6108C141.824 29.6108 140.599 29.9221 139.509 30.5447C138.42 31.1478 137.564 32.0136 136.941 33.142C136.319 34.2509 136.007 35.5836 136.007 37.14C136.007 38.677 136.319 40.0096 136.941 41.138C137.564 42.2664 138.41 43.1419 139.48 43.7645C140.57 44.3676 141.805 44.6692 143.186 44.6692Z" fill="#120D94"/>
<path d="M109.482 52.8404C106.72 52.8404 104.191 52.4999 101.895 51.819C99.6187 51.138 97.6537 50.175 96 48.9299L98.9766 42.3637C100.591 43.3949 102.323 44.212 104.171 44.8151C106.019 45.3988 107.77 45.6906 109.424 45.6906C110.942 45.6906 112.099 45.4863 112.897 45.0777C113.695 44.6497 114.093 44.0369 114.093 43.2392C114.093 42.5388 113.724 42.0233 112.984 41.6925C112.265 41.3618 110.844 41.0019 108.724 40.6128C104.716 39.9318 101.778 38.8132 99.9105 37.2568C98.0623 35.6809 97.1381 33.5311 97.1381 30.8074C97.1381 28.8618 97.6731 27.1595 98.7432 25.7004C99.8132 24.2412 101.292 23.1128 103.179 22.3152C105.086 21.498 107.274 21.0895 109.745 21.0895C112.158 21.0895 114.434 21.4105 116.574 22.0525C118.733 22.6945 120.582 23.5895 122.119 24.7373L119.23 31.3035C118.432 30.7003 117.508 30.1653 116.457 29.6984C115.426 29.2315 114.356 28.8716 113.247 28.6186C112.138 28.3657 111.058 28.2393 110.008 28.2393C108.704 28.2393 107.644 28.4435 106.827 28.8521C106.029 29.2412 105.63 29.786 105.63 30.4863C105.63 31.2062 105.981 31.7412 106.681 32.0914C107.381 32.4416 108.782 32.8404 110.883 33.2879C115.124 34.1439 118.13 35.3015 119.901 36.7606C121.671 38.2003 122.556 40.2237 122.556 42.8307C122.556 44.854 122.002 46.6147 120.893 48.1128C119.803 49.6108 118.276 50.7781 116.311 51.6147C114.366 52.4318 112.089 52.8404 109.482 52.8404Z" fill="#120D94"/>
<path d="M6.77857 19.2547L2.61626 21.4858C2.10999 21.7572 1.55084 21.2494 1.79798 20.7373C8.12723 7.62333 18.4957 1.74517 24.1818 0.0271258C24.7061 -0.131313 25.0939 0.437159 24.7805 0.879727L21.2234 5.90488C21.003 6.21619 21.1287 6.64758 21.4818 6.80068C23.3519 7.61165 26.5546 9.12313 29.2104 10.7461C29.6791 11.0325 29.5194 11.7241 28.9759 11.818C23.0429 12.843 18.429 14.7517 16.6588 15.6931C16.5838 15.733 16.5224 15.7856 16.4721 15.8533C15.31 17.415 12.7012 21.7674 10.4368 28.1183C10.2457 28.6543 9.47751 28.6617 9.30469 28.12C8.16612 24.5497 7.7967 21.5614 7.73887 19.8189C7.72327 19.3487 7.19877 19.0294 6.77857 19.2547Z" fill="#120D94"/>
<path d="M59.7897 7.77081L52.7397 13.5045C52.3017 13.8608 52.5586 14.5658 53.1271 14.5777C61.1982 14.7461 65.4807 16.1025 66.7894 16.8675C66.8742 16.917 66.941 16.9903 66.988 17.0754L73.4682 28.7929C73.7612 29.3226 74.5775 29.1394 74.6075 28.5373L75.0807 19.0041C75.0966 18.6864 75.3624 18.4335 75.6859 18.4444C76.447 18.4699 77.5945 18.5809 79.0702 19.0635C79.6607 19.2566 80.2465 18.5707 79.8928 18.0675C74.8181 10.8492 70.621 6.40764 68.9076 4.87089C68.7984 4.77293 68.6553 4.72023 68.5075 4.72023H65.8532C65.7543 4.72023 65.6576 4.69668 65.57 4.65138C62.4511 3.03863 58.7073 1.44501 56.1663 0.427132C55.5995 0.200081 55.1078 0.84608 55.481 1.32284L59.8839 6.94777C60.0832 7.20228 60.0415 7.5661 59.7897 7.77081Z" fill="#120D94"/>
<path d="M40.5217 27.8584L27.0377 22.4497C26.5821 22.267 26.1063 22.6649 26.2169 23.1361L29.5292 37.2413C29.5707 37.4179 29.5283 37.6032 29.414 37.7455L20.0199 49.4209C19.7118 49.804 19.9767 50.3685 20.473 50.387L35.0317 50.9268C35.2364 50.9344 35.4236 51.0431 35.5292 51.216L43.7984 64.7601C44.0629 65.1932 44.7209 65.1276 44.8914 64.6512L50.1141 50.064C50.1846 49.8669 50.3554 49.7202 50.5636 49.6779L66.5268 46.4322C67.0358 46.3288 67.1855 45.6854 66.773 45.3748L53.8251 35.6288C53.6631 35.5068 53.5743 35.313 53.5888 35.1127L54.6907 19.9562C54.7265 19.4603 54.1657 19.1414 53.746 19.4192L41.0902 27.8008C40.9225 27.912 40.7091 27.9337 40.5217 27.8584Z" fill="#120D94"/>
<path d="M4.91121 54.6507L1.0672 50.3064C0.640114 49.8239 -0.15556 50.2507 0.0266814 50.8649L3.47241 62.4748C3.4908 62.5367 3.51891 62.5947 3.55657 62.6477C8.42046 69.4793 16.8463 76.2791 15.6372 74.7939C14.8593 73.8383 14.419 72.1807 14.2226 71.0482C14.1579 70.6748 14.4804 70.3594 14.8636 70.4002L23.1656 71.2821C23.7778 71.3471 24.0879 70.5784 23.597 70.2135L13.1473 62.449C12.9956 62.3362 12.9064 62.1603 12.9064 61.9734V49.6144C12.9064 49.095 12.2777 48.8238 11.8887 49.1756L5.78004 54.6984C5.52847 54.9258 5.13551 54.9042 4.91121 54.6507Z" fill="#120D94"/>
</svg>
